<svg xmlns="http://www.w3.org/2000/svg" width="1188.217" height="858.585" viewBox="0 0 1188.217 858.585">
  <g id="Hapto-icon" transform="translate(-46.622 -48.817)">
    <g id="Growth_Arrow" data-name="Growth Arrow" transform="matrix(0.883, -0.469, 0.469, 0.883, 0, 592.331)" opacity="0.11">
      <path id="Path_5" data-name="Path 5" d="M47.438,0s245.13,175.421,491.174,176.555S1040.674,12.3,1040.674,12.3c29.077-23.33,73.375,19.045,73.5,49.191h0c-.323,48.227-25.016,54.043-52.946,69.573,0,0-276.164,145.869-522.209,144.734S.184,99.52.062,69.374L0,54.364C-.122,24.219,21.116-.121,47.438,0Z" transform="matrix(0.999, 0.035, -0.035, 0.999, 9.625, 81.204)" fill="#fff"/>
      <path id="Path_6" data-name="Path 6" d="M10.434,0s68.85,139.96,131.925,142.56S262.734,10.4,262.734,10.4c6.748.278,13.086,19.765,14.157,43.526l.533,11.831c1.071,23.76-3.531,42.8-10.279,42.518,0,0-58.186,115.107-121.261,112.507S14.845,97.878,14.845,97.878C8.1,97.6,1.759,78.113.688,54.353L.155,42.521C-.916,18.761,3.686-.275,10.434,0Z" transform="matrix(-0.375, -0.927, 0.927, -0.375, 1056.948, 340.091)" fill="#fff"/>
    </g>
  </g>
</svg>
